<svg xmlns="http://www.w3.org/2000/svg" xmlns:xlink="http://www.w3.org/1999/xlink" xmlns:inkscape="http://www.inkscape.org/namespaces/inkscape" version="1.1" width="311" height="133" viewBox="0 0 311 133">
<defs>
<path id="font_1_1" d="M.33399964 .30233766C.33999635 .32835389 .36299134 .42037965 .43299867 .42037965 .43798829 .42037965 .46199037 .42037965 .48298646 .40734864 .45498658 .402359 .43499757 .37734986 .43499757 .35334779 .43499757 .33735658 .44599916 .31835938 .47299195 .31835938 .49499513 .31835938 .5269928 .3363495 .5269928 .37635804 .5269928 .42837525 .46798707 .4423828 .43399049 .4423828 .37599183 .4423828 .34098817 .38935853 .32899476 .36634828 .3039856 .43237306 .25 .4423828 .22099304 .4423828 .116989139 .4423828 .05999756 .3133545 .05999756 .28834535 .05999756 .27833558 .069992069 .27833558 .07199097 .27833558 .07998657 .27833558 .08299255 .28033448 .084991458 .28933717 .11898804 .39535523 .18499756 .42037965 .21899414 .42037965 .23799134 .42037965 .272995 .4113617 .272995 .35334779 .272995 .32235719 .2559967 .25532533 .21899414 .11528015 .20298767 .053268434 .16799927 .011245728 .12399292 .011245728 .117996219 .011245728 .09498596 .011245728 .07398987 .024276734 .09899902 .029266358 .12098694 .05027771 .12098694 .07827759 .12098694 .105270389 .09899902 .11328125 .083999637 .11328125 .053985597 .11328125 .0289917 .08728027 .0289917 .055267335 .0289917 .009246826 .07899475-.0107421879 .12298584-.0107421879 .18899536-.0107421879 .22499085 .059280397 .22799683 .0652771 .23999024 .028274537 .27598573-.0107421879 .33599855-.0107421879 .43899537-.0107421879 .49598695 .118270877 .49598695 .14328003 .49598695 .1532898 .4869995 .1532898 .48399354 .1532898 .47499085 .1532898 .47299195 .14929199 .47099305 .14228821 .43798829 .03527832 .36999513 .011245728 .33799745 .011245728 .29899598 .011245728 .2829895 .043273927 .2829895 .07727051 .2829895 .09927368 .2889862 .121276859 .2999878 .16529846L.33399964 .30233766Z"/>
<path id="font_2_1" d="M.6749878 .22944641C.69299319 .22944641 .71199038 .22944641 .71199038 .25144959 .71199038 .27246095 .69200137 .27246095 .6749878 .27246095H.12298584C.10598755 .27246095 .085998538 .27246095 .085998538 .25144959 .085998538 .22944641 .10499573 .22944641 .12298584 .22944641H.6749878Z"/>
<path id="font_3_3" d="M.0289917 .19602967V.16503906H.3019867V.07901001C.3019867 .041992189 .29899598 .0309906 .22399903 .0309906H.20199585V0C.2649994 .0029907227 .33499146 .0029907227 .34199525 .0029907227 .34700013 .0029907227 .4189911 .0029907227 .48199464 0V.0309906H.45999146C.3849945 .0309906 .38198854 .041992189 .38198854 .07901001V.16503906H.48399354V.19602967H.38198854V.64974978C.38198854 .669754 .38198854 .6767578 .36299134 .6767578 .35099793 .6767578 .34999085 .67575076 .34098817 .66174319L.0289917 .19602967M.06098938 .19602967 .30799867 .56581118V.19602967H.06098938Z"/>
<path id="font_3_2" d="M.46199037 .17704773H.43399049C.43199159 .16404724 .42399598 .10501099 .41099549 .08900452 .40499879 .07998657 .33599855 .07998657 .31599427 .07998657H.13798523L.23699951 .17404175C.40098573 .3161316 .46199037 .36915589 .46199037 .4711914 .46199037 .5860901 .36698915 .6660156 .24398804 .6660156 .1289978 .6660156 .050994874 .575119 .050994874 .4841919 .050994874 .43418885 .09399414 .42919923 .102996829 .42919923 .125 .42919923 .15499878 .44519044 .15499878 .48120118 .15499878 .51119998 .13398743 .5332031 .102996829 .5332031 .09799194 .5332031 .09498596 .5332031 .09098816 .53219607 .114990238 .6030731 .1789856 .63500979 .23298645 .63500979 .33499146 .63500979 .36999513 .5401764 .36999513 .4711914 .36999513 .36915589 .29299928 .28611756 .24499512 .23408509L.06199646 .035995485C.050994874 .024993897 .050994874 .022994996 .050994874 0H.43399049L.46199037 .17704773Z"/>
<path id="font_3_1" d="M.47299195 .31976319C.47299195 .38682557 .46998597 .47288514 .43499757 .5479431 .3909912 .64201357 .31498719 .6660156 .25698854 .6660156 .19699097 .6660156 .12098694 .64201357 .07699585 .5459442 .04499817 .47688294 .039993287 .39582826 .039993287 .31976319 .039993287 .25471498 .041992189 .15765381 .084991458 .07858276 .13198853-.0064697267 .20999146-.022460938 .2559967-.022460938 .32099916-.022460938 .394989 .0055389406 .43699647 .097595218 .46699525 .1646576 .47299195 .23971558 .47299195 .31976319M.25698854 .002532959C.22698975 .002532959 .15499878 .016540528 .13598633 .12962342 .12599182 .18867493 .12599182 .2747345 .12599182 .33177186 .12599182 .39982606 .12599182 .47888185 .13798523 .53393557 .1579895 .6230011 .22200012 .64100649 .2559967 .64100649 .2939911 .64100649 .35699464 .62098696 .37599183 .5279236 .3869934 .47288514 .3869934 .39482118 .3869934 .33177186 .3869934 .2697296 .3869934 .18566895 .3769989 .12661743 .35598756 .012542725 .28199769 .002532959 .25698854 .002532959Z"/>
</defs>
<path transform="matrix(1.00003,0,0,-1.00009,150.771,120.08037)" stroke-width=".3985" stroke-linecap="butt" stroke-miterlimit="10" stroke-linejoin="miter" fill="none" stroke="#000000" d="M-149.67186 0H147.67934"/>
<path transform="matrix(1.00003,0,0,-1.00009,298.45478,120.08037)" d="M1.99252 0-1.19551 1.59401 0 0-1.19551-1.59401"/>
<use data-text="x" xlink:href="#font_1_1" transform="matrix(9.962899,0,0,-9.963496,303.9676,122.22556)"/>
<path transform="matrix(1.00003,0,0,-1.00009,150.771,120.08037)" stroke-width=".3985" stroke-linecap="butt" stroke-miterlimit="10" stroke-linejoin="miter" fill="none" stroke="#000000" d="M-90.71014 1.98438V-1.98438"/>
<use data-text="&#x2212;" xlink:href="#font_2_1" transform="matrix(8.966669,0,0,-8.967207,54.17009,131.36438)"/>
<use data-text="4" xlink:href="#font_3_3" transform="matrix(8.966669,0,0,-8.967207,61.33731,131.36438)"/>
<path transform="matrix(1.00003,0,0,-1.00009,150.771,120.08037)" stroke-width=".3985" stroke-linecap="butt" stroke-miterlimit="10" stroke-linejoin="miter" fill="none" stroke="#000000" d="M-45.35507 1.98438V-1.98438"/>
<use data-text="&#x2212;" xlink:href="#font_2_1" transform="matrix(8.966669,0,0,-8.967207,99.52646,131.36438)"/>
<use data-text="2" xlink:href="#font_3_2" transform="matrix(8.966669,0,0,-8.967207,106.69368,131.36438)"/>
<path transform="matrix(1.00003,0,0,-1.00009,150.771,120.08037)" stroke-width=".3985" stroke-linecap="butt" stroke-miterlimit="10" stroke-linejoin="miter" fill="none" stroke="#000000" d="M0 1.98438V-1.98438"/>
<use data-text="0" xlink:href="#font_3_1" transform="matrix(8.966669,0,0,-8.967207,148.46692,131.36438)"/>
<path transform="matrix(1.00003,0,0,-1.00009,150.771,120.08037)" stroke-width=".3985" stroke-linecap="butt" stroke-miterlimit="10" stroke-linejoin="miter" fill="none" stroke="#000000" d="M45.35507 1.98438V-1.98438"/>
<use data-text="2" xlink:href="#font_3_2" transform="matrix(8.966669,0,0,-8.967207,193.82329,131.36438)"/>
<path transform="matrix(1.00003,0,0,-1.00009,150.771,120.08037)" stroke-width=".3985" stroke-linecap="butt" stroke-miterlimit="10" stroke-linejoin="miter" fill="none" stroke="#000000" d="M90.71014 1.98438V-1.98438"/>
<use data-text="4" xlink:href="#font_3_3" transform="matrix(8.966669,0,0,-8.967207,239.17966,131.36438)"/>
<path transform="matrix(1.00003,0,0,-1.00009,150.771,120.08037)" stroke-width=".3985" stroke-linecap="butt" stroke-dasharray="2.98883,2.98883" stroke-miterlimit="10" stroke-linejoin="miter" fill="none" stroke="#000000" d="M-90.71014 0V54.84532"/>
<path transform="matrix(1.00003,0,0,-1.00009,150.771,120.08037)" stroke-width=".3985" stroke-linecap="butt" stroke-dasharray="2.98883,2.98883" stroke-miterlimit="10" stroke-linejoin="miter" fill="none" stroke="#000000" d="M-45.35507 0V11.90572"/>
<path transform="matrix(1.00003,0,0,-1.00009,150.771,120.08037)" stroke-width=".3985" stroke-linecap="butt" stroke-dasharray="2.98883,2.98883" stroke-miterlimit="10" stroke-linejoin="miter" fill="none" stroke="#000000" d="M0 0V69.37006"/>
<path transform="matrix(1.00003,0,0,-1.00009,150.771,120.08037)" stroke-width=".3985" stroke-linecap="butt" stroke-dasharray="2.98883,2.98883" stroke-miterlimit="10" stroke-linejoin="miter" fill="none" stroke="#000000" d="M45.35507 0V116.07982"/>
<path transform="matrix(1.00003,0,0,-1.00009,150.771,120.08037)" stroke-width=".3985" stroke-linecap="butt" stroke-dasharray="2.98883,2.98883" stroke-miterlimit="10" stroke-linejoin="miter" fill="none" stroke="#000000" d="M90.71014 0V89.808"/>
<path transform="matrix(1.00003,0,0,-1.00009,150.771,120.08037)" stroke-width=".79701" stroke-linecap="butt" stroke-miterlimit="10" stroke-linejoin="miter" fill="none" stroke="#000000" d="M-140.60065 107.7856-136.06522 105.64255-131.52976 102.74559-126.99432 99.13408-122.45854 94.92734-117.92311 90.20464-113.38768 85.006-108.85222 79.4107-104.31679 73.53685-99.781 67.42563-95.24557 61.19513-90.71014 54.84532-86.17468 48.49551-81.63925 42.265-77.10347 36.19315-72.56804 30.51791-68.03261 25.31927-63.49715 20.79521-58.96172 17.0644-54.42593 14.24677-49.8905 12.50098-45.35507 11.90572-40.81961 12.54033-36.28418 14.40604-31.7484 17.58034-27.21297 22.02507-22.67754 27.66093-18.14207 34.40738-13.60664 42.18568-9.07086 50.75784-4.53543 59.88531 0 69.37006 4.53543 78.53749 9.07086 86.79175 13.60664 93.9748 18.14207 100.12598 22.67754 105.20595 27.21297 109.29341 31.7484 112.34903 36.28418 114.45271 40.81961 115.68257 45.35507 116.07982 49.8905 115.68257 54.42593 114.61136 58.96172 112.94427 63.49715 110.68254 68.03261 107.94424 72.56804 104.80931 77.10347 101.35646 81.63925 97.62627 86.17468 93.77678 90.71014 89.808 95.24557 85.83922 99.781 81.91042 104.31679 78.10089 108.85222 74.41006 113.38768 70.87788 117.92311 67.58429 122.45854 64.56804 126.99432 61.8697 131.52976 59.48807 136.06522 57.54366 140.60065 55.99586"/>
<path transform="matrix(1.00003,0,0,-1.00009,150.771,120.08037)" d="M-88.51833 54.84532C-88.51833 56.05583-89.49963 57.03712-90.71014 57.03712-91.92064 57.03712-92.90195 56.05583-92.90195 54.84532-92.90195 53.63483-91.92064 52.65352-90.71014 52.65352-89.49963 52.65352-88.51833 53.63483-88.51833 54.84532ZM-90.71014 54.84532"/>
<path transform="matrix(1.00003,0,0,-1.00009,150.771,120.08037)" stroke-width=".3985" stroke-linecap="butt" stroke-miterlimit="10" stroke-linejoin="miter" fill="none" stroke="#000000" d="M-88.51833 54.84532C-88.51833 56.05583-89.49963 57.03712-90.71014 57.03712-91.92064 57.03712-92.90195 56.05583-92.90195 54.84532-92.90195 53.63483-91.92064 52.65352-90.71014 52.65352-89.49963 52.65352-88.51833 53.63483-88.51833 54.84532ZM-90.71014 54.84532"/>
<path transform="matrix(1.00003,0,0,-1.00009,150.771,120.08037)" d="M-43.16325 11.90572C-43.16325 13.11621-44.14456 14.09752-45.35507 14.09752-46.56557 14.09752-47.54688 13.11621-47.54688 11.90572-47.54688 10.6952-46.56557 9.7139-45.35507 9.7139-44.14456 9.7139-43.16325 10.6952-43.16325 11.90572ZM-45.35507 11.90572"/>
<path transform="matrix(1.00003,0,0,-1.00009,150.771,120.08037)" stroke-width=".3985" stroke-linecap="butt" stroke-miterlimit="10" stroke-linejoin="miter" fill="none" stroke="#000000" d="M-43.16325 11.90572C-43.16325 13.11621-44.14456 14.09752-45.35507 14.09752-46.56557 14.09752-47.54688 13.11621-47.54688 11.90572-47.54688 10.6952-46.56557 9.7139-45.35507 9.7139-44.14456 9.7139-43.16325 10.6952-43.16325 11.90572ZM-45.35507 11.90572"/>
<path transform="matrix(1.00003,0,0,-1.00009,150.771,120.08037)" d="M2.1918 69.37006C2.1918 70.58055 1.2105 71.56186 0 71.56186-1.2105 71.56186-2.1918 70.58055-2.1918 69.37006-2.1918 68.15955-1.2105 67.17825 0 67.17825 1.2105 67.17825 2.1918 68.15955 2.1918 69.37006ZM0 69.37006"/>
<path transform="matrix(1.00003,0,0,-1.00009,150.771,120.08037)" stroke-width=".3985" stroke-linecap="butt" stroke-miterlimit="10" stroke-linejoin="miter" fill="none" stroke="#000000" d="M2.1918 69.37006C2.1918 70.58055 1.2105 71.56186 0 71.56186-1.2105 71.56186-2.1918 70.58055-2.1918 69.37006-2.1918 68.15955-1.2105 67.17825 0 67.17825 1.2105 67.17825 2.1918 68.15955 2.1918 69.37006ZM0 69.37006"/>
<path transform="matrix(1.00003,0,0,-1.00009,150.771,120.08037)" d="M47.54688 116.07982C47.54688 117.29033 46.56557 118.27162 45.35507 118.27162 44.14456 118.27162 43.16325 117.29033 43.16325 116.07982 43.16325 114.86932 44.14456 113.88802 45.35507 113.88802 46.56557 113.88802 47.54688 114.86932 47.54688 116.07982ZM45.35507 116.07982"/>
<path transform="matrix(1.00003,0,0,-1.00009,150.771,120.08037)" stroke-width=".3985" stroke-linecap="butt" stroke-miterlimit="10" stroke-linejoin="miter" fill="none" stroke="#000000" d="M47.54688 116.07982C47.54688 117.29033 46.56557 118.27162 45.35507 118.27162 44.14456 118.27162 43.16325 117.29033 43.16325 116.07982 43.16325 114.86932 44.14456 113.88802 45.35507 113.88802 46.56557 113.88802 47.54688 114.86932 47.54688 116.07982ZM45.35507 116.07982"/>
<path transform="matrix(1.00003,0,0,-1.00009,150.771,120.08037)" d="M92.90195 89.808C92.90195 91.01851 91.92064 91.99982 90.71014 91.99982 89.49963 91.99982 88.51833 91.01851 88.51833 89.808 88.51833 88.5975 89.49963 87.6162 90.71014 87.6162 91.92064 87.6162 92.90195 88.5975 92.90195 89.808ZM90.71014 89.808"/>
<path transform="matrix(1.00003,0,0,-1.00009,150.771,120.08037)" stroke-width=".3985" stroke-linecap="butt" stroke-miterlimit="10" stroke-linejoin="miter" fill="none" stroke="#000000" d="M92.90195 89.808C92.90195 91.01851 91.92064 91.99982 90.71014 91.99982 89.49963 91.99982 88.51833 91.01851 88.51833 89.808 88.51833 88.5975 89.49963 87.6162 90.71014 87.6162 91.92064 87.6162 92.90195 88.5975 92.90195 89.808ZM90.71014 89.808"/>
</svg>
